<svg xmlns="http://www.w3.org/2000/svg" width="44.359" height="58.66" viewBox="0 0 44.359 58.66">
  <g id="_21035137391594941300" data-name="21035137391594941300" transform="translate(1.536 1.5)">
    <path id="Path_2" data-name="Path 2" d="M32.223,10.24,31.6,9H21.684l-.413,1.446a18.337,18.337,0,0,1-7.026,8.885h0C1.64,27.8,3.913,45.162,18.378,50.741h0a22.814,22.814,0,0,0,16.531,0h0C49.374,45.162,51.647,27.6,39.249,19.125h0A17.456,17.456,0,0,1,32.223,10.24Z" transform="translate(-6.019 3.295)" fill="none" stroke="#000" stroke-linecap="round" stroke-linejoin="round" stroke-miterlimit="10" stroke-width="3"/>
    <line id="Line_16" data-name="Line 16" x2="7.026" y2="11.365" transform="translate(9.053 0.93)" fill="none" stroke="#000" stroke-linecap="round" stroke-linejoin="round" stroke-miterlimit="10" stroke-width="3"/>
    <path id="Path_3" data-name="Path 3" d="M11.6,6.253,13.873,3.98a3.243,3.243,0,0,1,4.546,0h0a3.243,3.243,0,0,0,4.546,0h0a3.243,3.243,0,0,1,4.546,0l2.273,2.273" transform="translate(-0.067 -3.05)" fill="none" stroke="#000" stroke-linecap="round" stroke-linejoin="round" stroke-miterlimit="10" stroke-width="3"/>
    <path id="Path_4" data-name="Path 4" d="M25.226,14.865H18.2L25.226,3.5" transform="translate(6.971 -2.57)" fill="none" stroke="#000" stroke-linecap="round" stroke-linejoin="round" stroke-miterlimit="10" stroke-width="3"/>
    <line id="Line_17" data-name="Line 17" y2="2.066" transform="translate(20.625 26.76)" fill="none" stroke="#000" stroke-linecap="round" stroke-linejoin="round" stroke-miterlimit="10" stroke-width="3"/>
    <line id="Line_18" data-name="Line 18" y2="2.066" transform="translate(20.625 41.224)" fill="none" stroke="#000" stroke-linecap="round" stroke-linejoin="round" stroke-miterlimit="10" stroke-width="3"/>
    <path id="Path_5" data-name="Path 5" d="M20.2,17H17.1A3.178,3.178,0,0,0,14,20.1h0a3.178,3.178,0,0,0,3.1,3.1h2.066a3.178,3.178,0,0,1,3.1,3.1h0a3.178,3.178,0,0,1-3.1,3.1h-3.1" transform="translate(2.492 11.826)" fill="none" stroke="#000" stroke-linecap="round" stroke-linejoin="round" stroke-miterlimit="10" stroke-width="3"/>
  </g>
</svg>
