<svg xmlns="http://www.w3.org/2000/svg" width="19.526" height="26.056" viewBox="0 0 19.526 26.056">
  <g id="_21035137391594941300" data-name="21035137391594941300" transform="translate(0.516 0.623)">
    <path id="Path_2" data-name="Path 2" d="M17.757,9.555,17.479,9H13.036l-.185.648A8.214,8.214,0,0,1,9.7,13.628h0C4.058,17.423,5.076,25.2,11.555,27.7h0a10.22,10.22,0,0,0,7.405,0h0c6.48-2.5,7.5-10.367,1.944-14.162h0A7.82,7.82,0,0,1,17.757,9.555Z" transform="translate(-6.019 -3.492)" fill="none" stroke="#151515" stroke-linecap="round" stroke-linejoin="round" stroke-miterlimit="10" stroke-width="1"/>
    <line id="Line_16" data-name="Line 16" x2="3.147" y2="5.091" transform="translate(4.055 0.417)" fill="none" stroke="#151515" stroke-linecap="round" stroke-linejoin="round" stroke-miterlimit="10" stroke-width="1"/>
    <path id="Path_3" data-name="Path 3" d="M11.6,4.485l1.018-1.018a1.453,1.453,0,0,1,2.036,0h0a1.453,1.453,0,0,0,2.036,0h0a1.453,1.453,0,0,1,2.036,0l1.018,1.018" transform="translate(-6.434 -3.05)" fill="none" stroke="#151515" stroke-linecap="round" stroke-linejoin="round" stroke-miterlimit="10" stroke-width="1"/>
    <path id="Path_4" data-name="Path 4" d="M21.347,8.591H18.2L21.347,3.5" transform="translate(-6.925 -3.083)" fill="none" stroke="#151515" stroke-linecap="round" stroke-linejoin="round" stroke-miterlimit="10" stroke-width="1"/>
    <line id="Line_17" data-name="Line 17" y2="0.926" transform="translate(9.239 11.987)" fill="none" stroke="#151515" stroke-linecap="round" stroke-linejoin="round" stroke-miterlimit="10" stroke-width="1"/>
    <line id="Line_18" data-name="Line 18" y2="0.926" transform="translate(9.239 18.467)" fill="none" stroke="#151515" stroke-linecap="round" stroke-linejoin="round" stroke-miterlimit="10" stroke-width="1"/>
    <path id="Path_5" data-name="Path 5" d="M16.777,17H15.388A1.424,1.424,0,0,0,14,18.388h0a1.424,1.424,0,0,0,1.388,1.388h.926A1.424,1.424,0,0,1,17.7,21.165h0a1.424,1.424,0,0,1-1.388,1.388H14.926" transform="translate(-6.612 -4.087)" fill="none" stroke="#151515" stroke-linecap="round" stroke-linejoin="round" stroke-miterlimit="10" stroke-width="1"/>
  </g>
</svg>
