<svg id="cloudy-sky-svgrepo-com" xmlns="http://www.w3.org/2000/svg" width="30.825" height="24.437" viewBox="0 0 30.825 24.437">
  <g id="Group_33" data-name="Group 33">
    <path id="Path_14" data-name="Path 14" d="M118.32,157.874a6.745,6.745,0,0,0,0-5.373,6.866,6.866,0,0,0-1.517-2.192,7.07,7.07,0,0,0-2.25-1.477,7.213,7.213,0,0,0-2.819-.543,7.158,7.158,0,0,0-5.171-2.182,7.2,7.2,0,0,0-3.843,1.1,7.126,7.126,0,0,0-.633.449,7.327,7.327,0,0,0-.988-.067,7.2,7.2,0,0,0-2.758.543,7.067,7.067,0,0,0-2.25,1.477,6.862,6.862,0,0,0-1.517,2.192,6.744,6.744,0,0,0,0,5.373,6.861,6.861,0,0,0,1.517,2.192,7.067,7.067,0,0,0,2.25,1.477c.154.063.311.122.469.174a6.937,6.937,0,0,0,1.524,1.711,7.242,7.242,0,0,0,7.777.808,7.278,7.278,0,0,0,3.722-.744,7.112,7.112,0,0,0,1.288-.83,7.214,7.214,0,0,0,1.434-.423,7.074,7.074,0,0,0,2.251-1.477A6.863,6.863,0,0,0,118.32,157.874Zm-4.385,2.247a5.582,5.582,0,0,1-1.289.358.8.8,0,0,0-.4.185,5.518,5.518,0,0,1-1.136.758,5.637,5.637,0,0,1-2.511.59,5.7,5.7,0,0,1-.574-.029.81.81,0,0,0-.472.1,5.621,5.621,0,0,1-6.207-.537,5.386,5.386,0,0,1-1.31-1.541.789.789,0,0,0-.472-.368,5.61,5.61,0,0,1-.6-.21,5.486,5.486,0,0,1-1.747-1.147,5.328,5.328,0,0,1-1.178-1.7,5.238,5.238,0,0,1,0-4.17,5.329,5.329,0,0,1,1.178-1.7,5.487,5.487,0,0,1,1.747-1.147,5.592,5.592,0,0,1,2.141-.422,5.677,5.677,0,0,1,1.07.1.807.807,0,0,0,.688-.187,5.52,5.52,0,0,1,.724-.544,5.621,5.621,0,0,1,6.267.2,5.493,5.493,0,0,1,.934.858.8.8,0,0,0,.657.274c.117-.007.237-.011.356-.011a5.593,5.593,0,0,1,2.141.422,5.491,5.491,0,0,1,1.747,1.147,5.331,5.331,0,0,1,1.178,1.7,5.239,5.239,0,0,1,0,4.17,5.334,5.334,0,0,1-1.178,1.7A5.5,5.5,0,0,1,113.935,160.122Z" transform="translate(-88.053 -139.878)"/>
    <path id="Path_15" data-name="Path 15" d="M1.935,57.57a6.592,6.592,0,0,0,2.1,1.378c.151.062.31.121.474.174a.812.812,0,0,0,.252.04.792.792,0,0,0,.751-.527.767.767,0,0,0-.5-.977c-.126-.041-.247-.086-.361-.133a5.014,5.014,0,0,1-1.6-1.048A4.868,4.868,0,0,1,1.98,54.924a4.785,4.785,0,0,1,0-3.809,4.866,4.866,0,0,1,1.076-1.554,5.013,5.013,0,0,1,1.6-1.048,5.106,5.106,0,0,1,1.955-.385,5.184,5.184,0,0,1,.978.093.807.807,0,0,0,.688-.187,5.037,5.037,0,0,1,.662-.5,5.134,5.134,0,0,1,5.724.187,5.018,5.018,0,0,1,.853.783.8.8,0,0,0,.657.274c.108-.007.217-.01.325-.01a5.107,5.107,0,0,1,1.955.385,5.016,5.016,0,0,1,1.6,1.048A4.951,4.951,0,0,1,20.7,51a.806.806,0,0,0,1.1.226.76.76,0,0,0,.232-1.068,6.5,6.5,0,0,0-.866-1.042,6.6,6.6,0,0,0-2.1-1.378,6.761,6.761,0,0,0-2.6-.507,6.677,6.677,0,0,0-4.805-2.017A6.683,6.683,0,0,0,7.5,46.644a6.844,6.844,0,0,0-.9-.059,6.72,6.72,0,0,0-2.573.507,6.593,6.593,0,0,0-2.1,1.378A6.4,6.4,0,0,0,.521,50.514a6.291,6.291,0,0,0,0,5.011A6.4,6.4,0,0,0,1.935,57.57Z" transform="translate(0 -45.212)"/>
  </g>
</svg>
