<svg xmlns="http://www.w3.org/2000/svg" width="13.28" height="25" viewBox="0 0 13.28 25">
  <g id="thermometer-temperature-svgrepo-com_2_" data-name="thermometer-temperature-svgrepo-com (2)" transform="translate(-120.014)">
    <g id="Group_26" data-name="Group 26" transform="translate(123.09)">
      <g id="Group_25" data-name="Group 25">
        <path id="Path_8" data-name="Path 8" d="M191.508,16.1V3.405a3.405,3.405,0,1,0-6.81,0V16.1a5.1,5.1,0,1,0,6.81,0ZM186.527,3.405a1.576,1.576,0,1,1,3.152,0V11.18h-3.152ZM188.1,23.171a3.276,3.276,0,0,1-1.946-5.9.915.915,0,0,0,.37-.735V13.009h3.152v3.523a.915.915,0,0,0,.37.735A3.276,3.276,0,0,1,188.1,23.171Z" transform="translate(-183.001)"/>
      </g>
    </g>
    <g id="Group_28" data-name="Group 28" transform="translate(120.014 11.585)">
      <g id="Group_27" data-name="Group 27">
        <path id="Path_9" data-name="Path 9" d="M122.466,237.268h-1.537a.915.915,0,0,0,0,1.829h1.537a.915.915,0,0,0,0-1.829Z" transform="translate(-120.014 -237.268)"/>
      </g>
    </g>
    <g id="Group_30" data-name="Group 30" transform="translate(120.014 8.573)">
      <g id="Group_29" data-name="Group 29">
        <path id="Path_10" data-name="Path 10" d="M122.466,175.566h-1.537a.915.915,0,0,0,0,1.829h1.537a.915.915,0,0,0,0-1.829Z" transform="translate(-120.014 -175.566)"/>
      </g>
    </g>
    <g id="Group_32" data-name="Group 32" transform="translate(120.014 5.56)">
      <g id="Group_31" data-name="Group 31">
        <path id="Path_11" data-name="Path 11" d="M122.466,113.864h-1.537a.915.915,0,0,0,0,1.829h1.537a.915.915,0,0,0,0-1.829Z" transform="translate(-120.014 -113.864)"/>
      </g>
    </g>
  </g>
</svg>
