<svg id="time-svgrepo-com" xmlns="http://www.w3.org/2000/svg" width="18.697" height="18.209" viewBox="0 0 18.697 18.209">
  <path id="Path_12" data-name="Path 12" d="M9.349,0A9.239,9.239,0,0,0,0,9.1a9.239,9.239,0,0,0,9.348,9.1A9.24,9.24,0,0,0,18.7,9.1,9.24,9.24,0,0,0,9.349,0Zm0,16.893a7.9,7.9,0,0,1-8-7.789,7.9,7.9,0,0,1,8-7.788,7.9,7.9,0,0,1,8,7.788A7.9,7.9,0,0,1,9.349,16.893Z" transform="translate(-0.001)"/>
  <path id="Path_13" data-name="Path 13" d="M41.881,24.774h-.01l-2.019.029V19.658a.676.676,0,0,0-1.352,0v5.814s0,0,0,0,0,0,0,.006a.625.625,0,0,0,.009.078c0,.016,0,.032.006.048a.611.611,0,0,0,.026.081c0,.014.008.028.014.041a.677.677,0,0,0,.043.077c.007.011.012.023.02.034a.7.7,0,0,0,.058.068c.009.009.016.02.025.029A.706.706,0,0,0,38.77,26c.01.007.019.016.029.023a.66.66,0,0,0,.085.045c.01,0,.019.011.03.015a.707.707,0,0,0,.106.032l.02.006a.7.7,0,0,0,.135.013h.01l2.7-.039a.658.658,0,1,0-.01-1.316Z" transform="translate(-29.828 -14.832)"/>
</svg>
