<svg id="XMLID_459_" xmlns="http://www.w3.org/2000/svg" width="21.651" height="21.086" viewBox="0 0 21.651 21.086">
  <path id="XMLID_460_" d="M.984,211.917H7.546a2.269,2.269,0,0,1,2.3,2.237,1.621,1.621,0,0,1-1.64,1.6,1.1,1.1,0,0,1-1.115-1.086.984.984,0,0,0-1.968,0,3.047,3.047,0,0,0,3.083,3,3.566,3.566,0,0,0,3.608-3.514A4.215,4.215,0,0,0,7.546,210H.984a.959.959,0,1,0,0,1.917Z" transform="translate(0 -196.582)"/>
  <path id="XMLID_461_" d="M.984,10.863h14.58a6.016,6.016,0,0,0,6.087-5.928A5.007,5.007,0,0,0,16.584,0a4.2,4.2,0,0,0-4.25,4.139,3.555,3.555,0,0,0,3.6,3.5.959.959,0,1,0,0-1.917A1.61,1.61,0,0,1,14.3,4.139a2.255,2.255,0,0,1,2.282-2.222,3.062,3.062,0,0,1,3.1,3.017,4.071,4.071,0,0,1-4.119,4.011H.984a.959.959,0,1,0,0,1.917Z" transform="translate(0)"/>
</svg>
